<svg xmlns="http://www.w3.org/2000/svg" width="16.407" height="19.49" viewBox="0 0 16.407 19.49">
  <path id="icon" d="M10.316,19.49H3.045A3.049,3.049,0,0,1,0,16.445V6.129A3.049,3.049,0,0,1,3.045,3.083h7.271a3.049,3.049,0,0,1,3.045,3.045V16.445A3.049,3.049,0,0,1,10.316,19.49ZM3.045,4.606A1.524,1.524,0,0,0,1.523,6.129V16.445a1.524,1.524,0,0,0,1.523,1.523h7.271a1.524,1.524,0,0,0,1.523-1.523V6.129a1.524,1.524,0,0,0-1.523-1.523Zm13.362,9.935V3.045A3.049,3.049,0,0,0,13.362,0H4.911a.761.761,0,0,0,0,1.523h8.451a1.524,1.524,0,0,1,1.523,1.523v11.5a.761.761,0,0,0,1.523,0Zm0,0" fill="#ff5252"/>
</svg>
